# xmcd
#
# Track frame offsets: 
#        150
#        10852
#        21217
#        33690
#        43360
#        53185
#        64522
#        74085
#        83385
#        92877
#        103860
#        113152
#        122802
#        132370
#        141500
#        151237
#        161780
#        174442
#        183632
#        194707
#        203565
#        214117
#        224947
#        235710
#        244615
#        255740
#        266992
#        280132
#        289572
#        300970
#        310755
#
# Disc length: 4288 seconds
#
# Revision: 1
# Processed by: cddbd v1.5.2PL0 Copyright (c) Steve Scherf et al.
# Submitted via: ExactAudioCopyFreeDBPlugin 1.0
#
DISCID=d910be1f
DTITLE=Little Jimmy Dickens - I'm Little But I'm Loud: Gonna Shake Thi
DTITLE=s Shack Tonight
DYEAR=2005
DGENRE=Country
TTITLE0=Buddy's Boogie (Inst.)
TTITLE1=Salty Boogie
TTITLE2=You All Come
TTITLE3=Stinky Passed The Hat Around
TTITLE4=I'm Gettin' Nowhere Fast
TTITLE5=(I Got) A Hole In My Pocket
TTITLE6=Love Must Be Catching
TTITLE7=Country Boy Bounce (Inst.)
TTITLE8=Happy Heartaches
TTITLE9=Wabash Cannon Ball
TTITLE10=Blackeyed Joe's
TTITLE11=Slow Suicide
TTITLE12=I Never Had The Blues
TTITLE13=Raisin' The Dickens (Inst.)
TTITLE14=Big Sandy
TTITLE15=Country Ways And City Ideas
TTITLE16=You Don't Have Love At All
TTITLE17=Hannah
TTITLE18=Me And My Big Loud Mouth
TTITLE19=Hey Worm! (You Wanna Wiggle)
TTITLE20=Hey Ma! (Hide The Daughter)
TTITLE21=Walk, Chicken, Walk ('Cause You're Too Fat To Fly)
TTITLE22=Out Behind The Barn
TTITLE23=Red Wing (Inst.)
TTITLE24=Im' Coming Over Tonight
TTITLE25=Rockin' With Red
TTITLE26=Hillbilly Fever
TTITLE27=I Feel For You (But I Can't Quite Reach You)
TTITLE28=I Wish You Didn't Love Me So Much
TTITLE29=Jambalaya
TTITLE30=Goodbye
EXTD=
EXTT0=
EXTT1=
EXTT2=
EXTT3=
EXTT4=
EXTT5=
EXTT6=
EXTT7=
EXTT8=
EXTT9=
EXTT10=
EXTT11=
EXTT12=
EXTT13=
EXTT14=
EXTT15=
EXTT16=
EXTT17=
EXTT18=
EXTT19=
EXTT20=
EXTT21=
EXTT22=
EXTT23=
EXTT24=
EXTT25=
EXTT26=
EXTT27=
EXTT28=
EXTT29=
EXTT30=
PLAYORDER=
